<svg width="762" height="792" viewBox="0 0 762 792" fill="none" xmlns="http://www.w3.org/2000/svg">
<path d="M163.689 451.11C94.8123 543.293 54.0025 537.222 33.5346 513.134L0.106701 791.228C167.721 754.983 503.867 682.228 507.535 681.159C511.203 680.09 872.69 523.779 1052.97 445.757L1006.86 10.1821C954.337 -20.6422 891.967 23.4068 882.032 129.322C869.893 258.743 812.347 194.655 772.493 173.418C732.882 147.568 646.288 155.023 626.721 283.999C607.155 412.975 466.878 402.282 425.859 386.276C372.949 375.831 232.566 358.926 163.689 451.11Z" fill="url(#paint0_linear)" fill-opacity="0.1"/>
<defs>
<linearGradient id="paint0_linear" x1="824.085" y1="839.763" x2="167.158" y2="-102.267" gradientUnits="userSpaceOnUse">
<stop stop-color="white"/>
<stop offset="1" stop-color="#C4C4C4" stop-opacity="0"/>
</linearGradient>
</defs>
</svg>
