<svg width="29" height="22" viewBox="0 0 29 22" fill="none" xmlns="http://www.w3.org/2000/svg">
<path d="M28.25 2.875C28.25 3.04167 28.2083 3.25 28.125 3.5C28.0833 3.75 28.0625 4 28.0625 4.25C28.0625 4.45833 28.0833 4.64583 28.125 4.8125C28.2083 4.97917 28.375 5.0625 28.625 5.0625C27.9167 6.14583 27.1875 7.27083 26.4375 8.4375C25.7292 9.5625 25.0625 10.7292 24.4375 11.9375C23.8125 13.1042 23.2917 14.2708 22.875 15.4375C22.4583 16.6042 22.2292 17.75 22.1875 18.875C22.1875 19.5417 21.8542 19.9167 21.1875 20C20.5625 20.0833 19.8125 20.0417 18.9375 19.875C18.1042 19.6667 17.2708 19.4167 16.4375 19.125C15.6458 18.7917 15.0625 18.5417 14.6875 18.375C14.5208 18 14.3958 17.5625 14.3125 17.0625C14.2292 16.5625 14.1667 16.0625 14.125 15.5625C14.0833 15.0208 14.0417 14.5 14 14C14 13.4583 14 13 14 12.625C14.3333 12.1667 14.5625 11.5625 14.6875 10.8125C14.8125 10.0625 15 9.375 15.25 8.75C15.4167 8.33333 15.5 8.08333 15.5 8C15.5 7.875 15.5 7.8125 15.5 7.8125C15.5 7.77083 15.5208 7.70833 15.5625 7.625C15.6042 7.5 15.7292 7.22917 15.9375 6.8125C16.0208 6.60417 16.0208 6.4375 15.9375 6.3125C15.8542 6.14583 15.8542 6 15.9375 5.875C16.0208 5.79167 16.125 5.70833 16.25 5.625C16.4167 5.54167 16.5208 5.45833 16.5625 5.375C16.7292 5.125 16.7917 4.9375 16.75 4.8125C16.7083 4.6875 16.7917 4.5 17 4.25C17.1667 4.04167 17.3958 3.77083 17.6875 3.4375C17.9792 3.0625 18.125 2.70833 18.125 2.375C18.7083 2 19.25 1.60417 19.75 1.1875C20.2917 0.770833 21.0208 0.458333 21.9375 0.25C22.1458 0.375 22.5208 0.583333 23.0625 0.875C23.6042 1.16667 24.2083 1.45833 24.875 1.75C25.5417 2 26.1875 2.25 26.8125 2.5C27.4375 2.70833 27.9167 2.83333 28.25 2.875ZM14.1875 4.9375C13.5625 6.10417 12.9375 7.33333 12.3125 8.625C11.6875 9.875 11.1042 11.1458 10.5625 12.4375C10.0625 13.6875 9.64583 14.9583 9.3125 16.25C8.97917 17.5 8.83333 18.7083 8.875 19.875C8.875 20.5833 8.5625 21 7.9375 21.125C7.35417 21.25 6.64583 21.25 5.8125 21.125C5.02083 20.9583 4.22917 20.7292 3.4375 20.4375C2.64583 20.1458 2.0625 19.9167 1.6875 19.75C1.52083 19.375 1.375 18.9375 1.25 18.4375C1.16667 17.9375 1.08333 17.4167 1 16.875C0.958333 16.2917 0.916667 15.7292 0.875 15.1875C0.833333 14.6458 0.791667 14.1667 0.75 13.75C1.04167 13.25 1.22917 12.6042 1.3125 11.8125C1.39583 11.0208 1.54167 10.2917 1.75 9.625C1.875 9.16667 1.9375 8.89583 1.9375 8.8125C1.9375 8.6875 1.9375 8.625 1.9375 8.625C1.9375 8.58333 1.9375 8.5 1.9375 8.375C1.97917 8.25 2.08333 7.95833 2.25 7.5C2.33333 7.29167 2.33333 7.125 2.25 7C2.16667 6.83333 2.16667 6.66667 2.25 6.5C2.33333 6.41667 2.4375 6.33333 2.5625 6.25C2.6875 6.125 2.77083 6.02083 2.8125 5.9375C2.9375 5.64583 2.97917 5.4375 2.9375 5.3125C2.89583 5.1875 2.97917 5 3.1875 4.75C3.3125 4.54167 3.5 4.22917 3.75 3.8125C4.04167 3.39583 4.16667 3.02083 4.125 2.6875C4.70833 2.27083 5.20833 1.83333 5.625 1.375C6.08333 0.875 6.72917 0.5 7.5625 0.25C7.77083 0.375 8.14583 0.583333 8.6875 0.875C9.22917 1.125 9.8125 1.375 10.4375 1.625C11.1042 1.875 11.7292 2.10417 12.3125 2.3125C12.8958 2.52083 13.3542 2.64583 13.6875 2.6875C13.6875 2.85417 13.6667 3.0625 13.625 3.3125C13.625 3.5625 13.625 3.8125 13.625 4.0625C13.625 4.3125 13.6667 4.52083 13.75 4.6875C13.8333 4.85417 13.9792 4.9375 14.1875 4.9375Z" fill="url(#paint0_linear)"/>
<defs>
<linearGradient id="paint0_linear" x1="9" y1="0.999997" x2="9" y2="21.5" gradientUnits="userSpaceOnUse">
<stop stop-color="#5D5CC3"/>
<stop offset="1" stop-color="#FF3E5C"/>
</linearGradient>
</defs>
</svg>
