<svg width="342" height="418" viewBox="0 0 342 418" fill="none" xmlns="http://www.w3.org/2000/svg">
<path d="M153.042 380.484C220.376 322.291 400.578 226.924 322.867 97.2372C301.604 61.8394 260.123 41.5363 225.743 63.4636C212.06 71.4785 200.296 84.2222 189.012 98.1481C181.013 61.4303 161.189 29.5792 129.326 11.3379C88.6726 -11.5634 45.7776 4.8379 21.063 47.4953C-2.34454 88.7367 -5.84498 148.124 11.3525 193.598C38.8277 265.947 88.5837 322.102 105.47 400.817C111.419 427.843 149.769 420.336 143.065 392.994C142.105 390.629 141.902 388.581 141.218 385.35C145.823 384.333 149.672 382.999 153.042 380.484ZM99.9751 272.888C81.0509 235.524 48.9355 196.566 41.0799 154.02C34.3156 118.8 41.9295 68.0052 72.6646 49.4597C128.978 15.1183 159.452 110.315 152.186 157.33C148.589 179.38 176.614 188.163 186.939 171.873C197.264 155.583 208.344 139.608 220.659 125.132C228.778 115.771 239.307 101.529 250.579 98.3939C282.058 90.9559 300.011 136.746 298.812 164.708C295.527 215.352 259.492 242.475 226.275 268.815C194.089 294.605 161.699 318.347 129.993 345.32C121.981 319.393 111.632 295.432 99.9751 272.888Z" fill="white" fill-opacity="0.05"/>
</svg>
