<svg width="46" height="49" viewBox="0 0 46 49" fill="none" xmlns="http://www.w3.org/2000/svg">
<path d="M36.1063 20.798C36.0474 20.6425 35.9368 20.5067 35.8261 20.3709C34.337 19.098 32.1376 16.7314 30.0619 16.5694C27.6683 16.3499 24.6195 18.1559 22.4236 18.928C20.2276 19.7002 16.8634 20.2036 15.085 21.7657C13.3906 23.2366 12.5045 26.0604 11.7262 28.0732C11.5974 28.3589 11.6437 28.6376 11.7418 28.8967C11.697 29.0914 11.7558 29.2469 11.7629 29.4219C11.7251 29.7917 11.8821 30.2062 12.3107 30.3994C15.5253 31.8484 18.3158 34.5244 21.2729 36.5449C23.9764 38.3652 26.7639 40.0944 29.5836 41.7521C29.655 41.7843 29.655 41.7843 29.7265 41.8165C30.1048 42.5027 31.4213 42.5375 31.6256 41.5122C33.1482 34.8927 34.6385 28.3447 36.6219 21.8469C36.8277 21.2951 36.5153 20.9394 36.1063 20.798ZM22.1875 22.2167C23.3375 22.9069 24.4679 23.5454 25.6823 24.0928C24.1922 24.5385 22.6698 25.0556 21.1797 25.5013C21.5591 24.4689 21.8992 23.333 22.1875 22.2167ZM27.03 25.7746C27.542 29.7872 28.5596 33.7269 29.0002 37.7073C27.6791 36.2524 26.1704 34.9277 24.9334 33.3817C23.4232 31.5836 22.1007 29.6552 20.7263 27.7465C22.8061 27.1368 24.9181 26.4557 27.03 25.7746ZM28.9347 25.172C30.6839 24.6282 32.3617 24.0523 34.0914 23.4567C32.8597 27.7147 31.803 31.9657 30.8178 36.2489C30.3003 32.5347 29.4004 28.9059 28.9347 25.172ZM33.9747 21.4273C32.2969 22.0032 30.5995 22.5274 28.9735 23.0837C29.3906 21.6817 30.1649 20.4406 30.6535 19.0707C31.8286 19.5145 32.9213 20.5227 33.9747 21.4273ZM28.4027 18.9157C28.4545 18.8961 28.5063 18.8764 28.6296 18.889C28.3398 19.5319 28.0304 20.1231 27.6887 20.7856C27.4311 21.3571 27.2254 21.909 27.0392 22.5127C25.8248 21.9653 24.6229 21.2946 23.4729 20.6043C25.0471 20.0676 26.7375 19.3684 28.4027 18.9157ZM20.305 21.626C19.9201 22.9566 19.5352 24.2873 19.0788 25.5857C18.5788 25.3603 18.1109 25.0635 17.6431 24.7666C17.136 24.3662 16.6611 23.8942 16.1218 23.5652C17.0138 22.635 18.7112 22.1109 20.305 21.626ZM15.0114 25.1705C15.031 25.2223 15.0829 25.2027 15.1025 25.2545C15.6936 25.5639 16.2273 26.1913 16.7862 26.5722C16.8773 26.6562 17.0202 26.7206 17.163 26.785C16.1071 27.1255 14.9796 27.4339 13.9237 27.7744C14.1868 26.9046 14.5536 25.9955 15.0114 25.1705ZM14.889 29.5418C16.1719 29.1746 17.4351 28.7556 18.718 28.3884C20.1708 30.5044 21.6755 32.6008 23.316 34.5865C23.98 35.4015 24.6762 36.1451 25.4243 36.869C23.8778 35.9141 22.3636 34.8878 20.9012 33.8418C18.8995 32.4668 16.9747 30.8257 14.889 29.5418Z" fill="#FF3E5C"/>
<path d="M34.8036 12.8189C34.1526 14.0725 33.1766 15.0938 32.4541 16.3152C31.8156 17.4456 33.6534 18.231 34.24 17.1202C34.9625 15.8987 35.9385 14.8775 36.5895 13.6239C37.2084 12.4416 35.3706 11.6563 34.8036 12.8189Z" fill="#FF3E5C"/>
<path d="M30.2787 15.4208C31.0052 13.4276 31.6799 11.454 32.3028 9.50008C32.6751 8.2927 30.8696 7.43589 30.5169 8.69509C29.9136 10.7009 29.2389 12.6744 28.4928 14.6158C27.9972 15.8106 29.8546 16.6478 30.2787 15.4208Z" fill="#FF3E5C"/>
<path d="M25.2535 15.6053C25.4503 12.213 25.6275 8.76896 25.8243 5.37668C25.8787 4.11194 23.9192 3.78738 23.8649 5.05212C23.668 8.4444 23.4908 11.8885 23.294 15.2808C23.1878 16.5651 25.1473 16.8897 25.2535 15.6053Z" fill="#FF3E5C"/>
<path d="M11.2534 24.1643C9.74773 23.7864 8.20982 23.48 6.67191 23.1735C5.40012 22.9441 5.07556 24.9036 6.34735 25.133C7.88526 25.4394 9.42317 25.7459 10.9289 26.1237C12.1685 26.4246 12.493 24.4651 11.2534 24.1643Z" fill="#FF3E5C"/>
<path d="M13.383 20.8695C14.4812 21.5794 15.7344 20.0385 14.6362 19.3286C12.7452 18.0894 10.7324 17.3111 8.61596 16.572C7.38896 16.1478 6.58397 17.9337 7.81097 18.3579C9.73272 19.0522 11.7063 19.7269 13.383 20.8695Z" fill="#FF3E5C"/>
<path d="M16.7272 18.1224C17.7413 18.9233 18.9946 17.3824 17.9804 16.5815C15.861 14.8956 13.9292 13.0794 11.9456 11.2828C10.9636 10.4104 9.73002 12.0031 10.6924 12.8237C12.6564 14.5684 14.6077 16.4364 16.7272 18.1224Z" fill="#FF3E5C"/>
<path d="M20.9747 16.0403C19.6744 12.9187 18.5491 9.78997 17.5597 6.55059C17.1603 5.33916 15.2948 6.04541 15.6942 7.25685C16.7355 10.4766 17.8608 13.6053 19.1093 16.7466C19.6123 17.9188 21.4778 17.2125 20.9747 16.0403Z" fill="#FF3E5C"/>
</svg>
