<svg width="21" height="23" viewBox="0 0 21 23" fill="none" xmlns="http://www.w3.org/2000/svg">
<path d="M10.4023 20.1206C14.2011 16.9582 24.5164 11.5781 19.6469 5.17417C18.3148 3.42636 15.8361 2.50662 13.8773 3.72369C13.0959 4.17171 12.4386 4.85582 11.8122 5.59896C11.2534 3.74625 10.0142 2.17551 8.10374 1.3339C5.66711 0.279135 3.19613 1.23803 1.85429 3.48655C0.585499 5.65905 0.526956 8.70206 1.64594 10.976C3.43291 14.5935 6.48446 17.321 7.66717 21.2935C8.08207 22.657 10.3089 22.1652 9.84898 20.7877C9.78698 20.6696 9.77 20.5656 9.72201 20.4025C9.98911 20.3376 10.2112 20.2586 10.4023 20.1206ZM7.03008 14.7752C5.83 12.9204 3.85367 11.0214 3.28885 8.87059C2.80599 7.09091 3.12655 4.4751 4.88031 3.44105C8.09271 1.52797 10.1116 6.30391 9.80204 8.72566C9.64579 9.86201 11.3083 10.2314 11.8726 9.37023C12.437 8.50904 13.0463 7.66186 13.7317 6.88772C14.1839 6.38663 14.7652 5.62948 15.4175 5.43753C17.2422 4.96869 18.4062 7.25665 18.4049 8.68812C18.3374 11.284 16.2945 12.7711 14.4146 14.2103C12.5938 15.6184 10.7559 16.9226 8.9661 18.3897C8.43315 17.0882 7.76813 15.8937 7.03008 14.7752Z" fill="#FF3E5C"/>
</svg>
