<svg width="17" height="29" viewBox="0 0 17 29" fill="none" xmlns="http://www.w3.org/2000/svg">
<path d="M11.8947 11.8193C11.2809 11.8091 10.7286 11.8916 10.1792 12.0223C9.86457 10.5452 9.54693 9.01995 9.23228 7.54283C9.50994 7.5256 9.78759 7.50837 10.0127 7.54268C11.5825 7.68665 12.1731 5.52572 10.5507 5.43329C9.93392 5.37501 9.32009 5.36483 8.65372 5.40619C8.28951 4.0287 7.86976 2.65466 7.45002 1.28063C6.97773 -0.0418728 4.62571 0.683444 5.098 2.00594C5.51178 3.28379 5.86704 4.517 6.22528 5.79829C5.95061 5.86362 5.73147 5.9255 5.45979 6.03892C5.17797 5.09083 4.84062 4.14619 4.44774 3.20499C3.91992 1.88594 1.5679 2.61126 2.09572 3.93031C2.49457 4.96769 2.89641 6.05317 3.24271 7.14209C2.54767 7.61974 1.96668 8.13858 1.45017 8.79826C-0.148911 10.8769 -0.142387 13.6767 2.39947 15.1122C3.26527 15.5895 4.28273 15.816 5.28528 15.8021C5.62978 17.7601 5.97726 19.7663 6.26623 21.7278C4.623 21.2987 3.27415 20.2237 2.41016 18.8773C1.61065 17.6716 -0.430872 18.9087 0.313104 20.1178C1.7306 22.299 4.09393 23.5524 6.62267 23.8782C6.80238 24.9775 6.97911 26.0287 7.15583 27.0798C7.40899 28.4642 9.90788 28.3091 9.65473 26.9247C9.48099 25.9217 9.30724 24.9186 9.1335 23.9155C9.46669 23.8948 9.79689 23.8261 10.1826 23.7538C10.4734 24.8462 10.7642 25.9386 11.1105 27.0275C11.5272 28.3535 13.9348 27.6247 13.4625 26.3022C13.1162 25.2133 12.7669 24.0762 12.4761 22.9839C14.6406 21.9322 16.2576 20.1421 16.6548 17.5587C17.0984 14.8275 15.1919 11.9526 11.8947 11.8193ZM6.80981 8.03113C7.18895 9.64908 7.51554 11.3186 7.89766 12.9846C7.73405 13.0431 7.5179 13.153 7.35429 13.2115C7.0277 11.542 6.64856 9.92401 6.15538 8.26486C6.37154 8.15488 6.59068 8.09301 6.80981 8.03113ZM3.75852 12.7587C2.40072 11.5394 2.77632 10.4057 3.89173 9.51576C4.24997 10.7971 4.55567 12.1299 4.80285 13.4181C4.45773 13.2464 4.1126 13.0747 3.75852 12.7587ZM9.61301 21.7615C9.33834 21.8268 9.11622 21.8406 8.84155 21.9059C8.48511 19.7555 8.12568 17.557 7.76925 15.4065C7.98838 15.3447 8.15199 15.2862 8.37113 15.2243C8.78609 17.4194 9.25359 19.563 9.7796 21.7511C9.66854 21.758 9.61301 21.7615 9.61301 21.7615ZM11.9997 20.6961C11.5351 18.6006 11.0676 16.4571 10.6557 14.3101C12.5228 13.8563 14.178 14.4777 14.2568 16.6454C14.3553 18.2325 13.3868 19.6927 11.9997 20.6961Z" fill="#FF3E5C"/>
</svg>
