<svg width="29" height="24" viewBox="0 0 29 24" fill="none" xmlns="http://www.w3.org/2000/svg" fill-opacity="0.05">
<path d="M22.7676 8.88329C20.5286 10.3823 18.8603 12.5868 16.7968 14.2621C16.3578 12.6749 15.8749 11.0877 15.4358 9.45645C15.2602 8.79512 14.2944 8.44241 13.7675 9.01556C12.2309 10.8673 11.2212 12.8954 10.3431 15.0998C9.02604 13.2481 7.53335 11.5286 5.60163 10.25C4.98699 9.85325 4.06503 10.3823 4.10893 11.0877C4.46016 14.703 5.07479 18.2301 6.12846 21.7131C6.12846 21.7572 6.12846 21.7572 6.17236 21.8013C5.99675 22.4186 6.52359 23.3003 7.35774 23.124C12.0992 22.2422 16.8846 21.8013 21.7139 21.7572C21.8456 21.7572 21.9774 21.7131 22.1091 21.669C22.5481 21.5809 22.8993 21.2722 22.9432 20.7432C23.031 17.0397 23.8213 13.3803 24.2603 9.72098C24.3481 8.97147 23.3383 8.48649 22.7676 8.88329ZM9.72849 17.701C10.2114 18.4506 11.2212 18.2742 11.5285 17.4806C12.2309 15.5407 12.9773 13.689 14.031 11.9695C14.4261 13.3803 14.8651 14.7912 15.2163 16.202C15.3919 16.7752 16.1383 17.172 16.6651 16.7752C18.6407 15.4525 20.1334 13.6008 21.8896 12.0136C21.4944 14.6148 21.0554 17.172 20.9237 19.8173C16.5334 19.8614 12.2309 20.2582 7.88457 21.0077C7.18213 18.4946 6.61139 15.9816 6.26017 13.3803C7.66506 14.6589 8.71872 16.1579 9.72849 17.701Z" fill="white"/>
<path d="M26.8057 0.815125C26.1911 0.550488 25.5765 0.594594 25.0057 0.815125C24.6545 0.726913 24.2594 0.859232 23.996 1.25619C23.8643 1.43261 23.7765 1.65315 23.7325 1.87368C23.6008 2.0501 23.513 2.27063 23.4252 2.49117C23.2496 2.97633 23.4252 3.32919 23.7325 3.50561C23.9082 4.16721 24.2594 4.78469 24.7423 5.18165C25.9277 6.06378 27.6399 5.5345 28.2106 4.21131C28.8692 2.88812 28.1667 1.3444 26.8057 0.815125ZM26.4984 3.37329C26.4106 3.63793 26.1472 3.72614 25.9277 3.54972C25.796 3.4174 25.6643 3.02044 25.6643 2.66759C26.0594 2.49117 26.674 2.84401 26.4984 3.37329Z" fill="white"/>
<path d="M12.187 5.66778C13.3285 6.77043 15.2163 6.85865 16.2261 5.53546C17.2358 4.21227 16.4017 2.44802 14.9968 1.83053C14.2943 1.52179 13.4163 1.38947 12.6699 1.61C11.8358 1.83053 11.4407 2.58034 11.2211 3.37425C11.1333 3.77121 11.2211 4.07995 11.4407 4.30048C11.5724 4.78565 11.7919 5.31493 12.187 5.66778ZM14.6895 4.25638C14.6456 4.56512 14.2504 4.56512 14.0309 4.52101C13.8553 4.47691 13.7236 4.38869 13.5919 4.25638C13.5041 4.21227 13.4602 4.12406 13.4163 4.07995C13.6358 3.94763 13.7675 3.77121 13.8992 3.59478H13.9431C14.2065 3.63889 14.7773 3.85942 14.6895 4.25638Z" fill="white"/>
<path d="M4.02058 3.24221C2.7913 2.40419 0.37665 2.27188 0.069331 4.16845C0.0254283 4.34487 0.069331 4.47719 0.069331 4.60951C0.069331 4.65361 0.0254281 4.74183 0.0254281 4.83004C-0.10628 5.62395 0.288844 6.46197 0.85958 7.03535C1.95715 8.13801 3.93277 8.40265 5.07424 7.16767C6.25962 5.88859 5.24986 4.08023 4.02058 3.24221ZM3.62545 5.80038C3.53765 6.02091 3.14252 6.02091 2.92301 6.02091C2.39618 5.88859 2.17666 5.31521 1.73764 5.31521C2.17666 5.31521 2.44008 5.05057 2.61569 4.74183C3.14252 4.96236 3.75716 5.40342 3.62545 5.80038Z" fill="white"/>
</svg>
