<svg width="158" height="189" viewBox="0 0 158 189" fill="none" xmlns="http://www.w3.org/2000/svg">
<path d="M119.273 116.944C119.478 116.337 119.468 115.655 119.458 114.972C117.925 107.414 116.889 94.8267 110.68 89.0102C103.601 82.2074 89.3192 79.6472 80.3669 76.2556C71.4147 72.864 59.4163 65.6796 49.8005 65.6745C40.6826 65.6192 30.7257 71.6042 23.1603 75.4927C22.0279 75.9976 21.4716 76.9325 21.13 77.9433C20.4955 78.3979 20.2905 79.0044 19.8708 79.535C18.8166 80.5202 18.27 82.1375 19.1488 83.8061C25.7393 96.3208 27.8786 111.335 32.2044 124.86C36.2275 137.146 40.7485 149.381 45.5526 161.491C45.699 161.769 45.699 161.769 45.8455 162.047C45.3186 165.029 49.4288 168.519 52.6696 166.044C74.2427 150.587 95.5328 135.256 118.268 121.341C120.318 120.255 120.22 118.41 119.273 116.944ZM71.3084 85.2741C73.232 90.2543 75.2239 95.0324 77.7136 99.7602C71.8366 97.2296 65.6764 94.8252 59.7993 92.2946C63.6162 90.2493 67.5697 87.7997 71.3084 85.2741ZM77.7632 108.152C69.2614 121.214 62.556 135.365 53.9078 148.15C53.3702 140.491 51.9052 132.731 51.8655 125.022C51.5914 115.872 52.2447 106.824 52.6832 97.6998C60.8544 101.268 69.3088 104.71 77.7632 108.152ZM85.3585 111.29C92.3094 114.2 99.1139 116.832 106.133 119.54C91.4516 128.834 77.3461 138.558 63.387 148.559C71.1176 136.355 77.4131 123.418 85.3585 111.29ZM110.887 113.3C104.082 110.668 97.3461 107.833 90.7564 105.277C95.6275 102.247 101.231 100.607 106.248 97.8542C108.875 102.178 109.812 107.941 110.887 113.3ZM99.4631 91.6077C99.6779 91.6836 99.8927 91.7595 100.254 92.1136C97.7061 93.2496 95.2266 94.1835 92.4639 95.2436C90.1992 96.2535 88.1492 97.3392 86.0309 98.6272C83.5412 93.8994 81.4028 88.8432 79.4792 83.863C85.8541 86.3433 93.01 88.6471 99.4631 91.6077ZM66.7977 78.7002C62.2097 81.6044 57.6217 84.5087 52.8872 87.1349C51.862 85.1881 51.1199 83.1152 50.3778 81.0422C49.7724 78.5649 49.45 75.9614 48.5614 73.6103C53.7549 73.1834 60.491 76.0177 66.7977 78.7002ZM40.9666 75.4514C40.8983 75.6536 41.113 75.7295 41.0447 75.9317C42.1481 78.3587 42.2655 81.5687 43.0857 84.122C43.1639 84.6022 43.4568 85.1584 43.7497 85.7147C39.5225 83.9937 35.1489 81.9947 30.9217 80.2738C33.9576 78.405 37.423 76.6881 40.9666 75.4514ZM29.5361 87.9314C34.5541 90.1583 39.6404 92.183 44.6583 94.4098C43.9466 104.343 43.4496 114.351 43.6652 124.386C43.7241 128.48 44.0662 132.449 44.623 136.493C42.1037 129.718 39.8676 122.817 37.8462 115.991C34.9363 106.815 32.9439 97.0576 29.5361 87.9314Z" fill="white" fill-opacity="0.05"/>
<path d="M135.271 90.2347C130.029 92.2287 124.337 92.706 118.949 94.4219C114.058 96.0875 117.934 103.116 122.61 101.374C127.999 99.6586 133.69 99.1813 138.932 97.1873C143.891 95.3195 140.015 88.291 135.271 90.2347Z" fill="white" fill-opacity="0.05"/>
<path d="M114.273 86.2061C121.624 82.2418 128.76 78.2014 135.681 74.0852C139.917 71.5093 136.324 64.3545 132.019 67.1326C125.03 71.451 117.894 75.4913 110.612 79.2535C106.014 81.4753 109.822 88.7061 114.273 86.2061Z" fill="white" fill-opacity="0.05"/>
<path d="M97.7814 73.8114C106.977 64.3885 116.24 54.7635 125.435 45.3406C128.803 41.7786 123.375 35.7855 120.007 39.3476C110.812 48.7704 101.548 58.3955 92.3531 67.8183C88.7707 71.3044 94.199 77.2975 97.7814 73.8114Z" fill="white" fill-opacity="0.05"/>
<path d="M31.5256 62.8339C27.6788 57.8526 23.549 52.9976 19.4191 48.1426C15.9435 44.1979 9.95965 49.0981 13.4353 53.0429C17.5652 57.8979 21.695 62.7529 25.5418 67.7342C28.7344 71.8051 34.7182 66.9049 31.5256 62.8339Z" fill="white" fill-opacity="0.05"/>
<path d="M46.6355 58.6712C48.3444 63.5755 56.2321 62.2906 54.5233 57.3863C51.6232 48.8923 47.171 41.4338 42.2892 33.8234C39.448 29.424 32.3707 32.5797 35.2119 36.9791C39.5859 43.9573 44.1748 51.0115 46.6355 58.6712Z" fill="white" fill-opacity="0.05"/>
<path d="M64.2393 59.2359C65.4502 64.1904 73.338 62.9055 72.127 57.9509C69.627 47.5615 68.0544 37.2736 66.267 26.9098C65.3391 21.829 57.3831 23.3161 58.3792 28.1947C60.2349 38.3564 61.7392 48.8464 64.2393 59.2359Z" fill="white" fill-opacity="0.05"/>
<path d="M83.04 64.0722C86.7778 51.5882 91.0916 39.5342 96.1181 27.5058C97.9042 22.9319 90.1723 20.1981 88.3862 24.772C83.5745 36.8763 79.2607 48.9304 75.3081 61.3385C73.9515 66.0642 81.6834 68.798 83.04 64.0722Z" fill="white" fill-opacity="0.05"/>
</svg>
