<svg width="241" height="448" viewBox="0 0 241 448" fill="none" xmlns="http://www.w3.org/2000/svg">
<path d="M203.414 209.655C195.639 204.854 188.036 201.878 180.154 199.629C185.898 175.61 191.922 150.864 197.666 126.845C201.327 128.697 204.989 130.548 207.638 132.757C226.743 146.761 248.573 119.586 228.456 105.939C220.96 100.411 213.185 95.6104 204.398 91.1665C208.85 68.2313 212.57 44.9257 216.29 21.6201C218.998 -1.32883 184.152 -8.52837 181.444 14.4205C178.284 36.2721 174.671 57.0263 170.778 78.5075C166.837 77.3829 163.628 76.6286 159.407 76.2311C162.073 60.2093 164.008 43.8173 165.21 27.0549C167.185 3.73567 132.339 -3.46389 130.364 19.8553C128.602 38.0717 126.561 57.0152 123.788 75.5883C111.75 77.3173 100.897 80.514 89.9369 86.2621C55.765 104.59 37.3408 145.646 60.3287 185.932C68.2354 199.484 79.7379 210.512 92.6392 217.905C84.0974 249.194 75.2757 281.211 66.0016 312.13C47.8429 293.393 37.715 267.427 35.5766 241.159C33.3312 217.442 -0.930661 220.091 0.582484 243.438C4.27539 286.125 26.1855 322.392 56.3406 346.327C51.3702 363.789 46.6796 380.524 41.989 397.259C36.0722 419.454 69.0251 436.118 74.9419 413.924C79.3527 397.916 83.7636 381.907 88.1744 365.899C92.5681 368.121 97.2416 369.616 102.647 371.481C99.1416 389.684 95.6358 407.887 92.8622 426.46C89.4221 449.039 125 456.609 127.708 433.66C130.481 415.087 133.535 395.786 137.041 377.584C171.648 378.583 204.141 364.617 226.292 329.788C250.015 293.149 244.661 236.593 203.414 209.655ZM163.487 115.64C157.636 142.211 150.772 169.138 144.642 196.435C142.165 196.051 138.676 196.024 136.2 195.64C143.063 168.713 148.914 142.142 153.58 114.104C157.069 114.132 160.278 114.886 163.487 115.64ZM93.2501 161.761C83.9616 133.614 96.2548 119.855 116.389 115.272C112.496 136.754 107.592 158.591 102.235 179.332C98.96 174.202 95.6854 169.072 93.2501 161.761ZM108.54 337.984C104.599 336.859 101.67 335.378 97.7283 334.253C107.389 300.056 117.33 265.132 126.991 230.935C130.2 231.689 132.677 232.073 135.886 232.827C126.677 268.122 118.481 303.06 110.737 339.095C109.272 338.354 108.54 337.984 108.54 337.984ZM146.076 340.465C153.993 306.254 162.189 271.316 171.118 236.748C197.974 244.25 215.014 265.895 201.691 298.24C192.459 322.232 170.432 336.28 146.076 340.465Z" fill="white" fill-opacity="0.05"/>
</svg>
