<?xml version="1.0" encoding="utf-8"?>
<!-- Generator: Adobe Illustrator 19.0.1, SVG Export Plug-In . SVG Version: 6.00 Build 0)  -->
<svg version="1.1" id="Layer_1" xmlns="http://www.w3.org/2000/svg" xmlns:xlink="http://www.w3.org/1999/xlink" x="0px" y="0px"
	 viewBox="-69.9 555 681.9 267" style="enable-background:new -69.9 555 681.9 267;" xml:space="preserve">
<style type="text/css">
	.st0{clip-path:url(#SVGID_2_);fill:#FFFFFF;fill-opacity:5.000000e-002;}
	.st1{clip-path:url(#SVGID_2_);fill:url(#SVGID_3_);fill-opacity:0.1;}
</style>
<g>
	<defs>
		<rect id="SVGID_1_" x="-69.9" y="555" width="681.9" height="267"/>
	</defs>
	<clipPath id="SVGID_2_">
		<use xlink:href="#SVGID_1_"  style="overflow:visible;"/>
	</clipPath>
	<path class="st0" d="M-99.5,801.9c-82.1,40.4-126.2,20.3-138,5.2l-96.8,142.5c153.8,0.7,462.2,2.2,465.6,2.1
		c3.4-0.1,354.2-39.7,529.1-59.4L712,649.6c-37.9-22.4-68.2-1.4-99.7,71.6c-29.3,67.9-150.9,12.1-180.1-3.7
		c-27.9-18.3-95.9-38.5-144.3,27.1c-48.4,65.6-123.6,55.4-155.2,42.2C89.5,775-17.4,761.5-99.5,801.9z"/>
	
		<linearGradient id="SVGID_3_" gradientUnits="userSpaceOnUse" x1="810.5087" y1="-556.4436" x2="104.1553" y2="456.4635" gradientTransform="matrix(0.8031 0 0 -0.8031 0 715.8504)">
		<stop  offset="0" style="stop-color:#FFFFFF"/>
		<stop  offset="1" style="stop-color:#C4C4C4;stop-opacity:0"/>
	</linearGradient>
	<path class="st1" d="M89,821.3c-59.5,79.6-94.7,74.4-112.4,53.6L-52.2,1115c144.7-31.3,435-94.1,438.2-95.1
		c3.2-0.9,315.3-135.9,471-203.3l-39.8-376.2c-45.4-26.6-99.2,11.4-107.8,102.9c-10.5,111.8-60.2,56.4-94.6,38.1
		c-34.2-22.3-109-15.9-125.9,95.5c-16.9,111.4-138,102.1-173.5,88.3C269.7,756.3,148.5,741.7,89,821.3z"/>
</g>
</svg>
